<svg xmlns:xlink="http://www.w3.org/1999/xlink" class="size-6" viewBox="0 0 36 36" fill="none" xmlns="http://www.w3.org/2000/svg" width="36"  height="36" > <path d="M30.772 19.1064L31.772 19.1064L31.772 17.1064L30.772 17.1064L30.772 19.1064ZM4.77197 17.1064C4.21969 17.1064 3.77197 17.5542 3.77197 18.1064C3.77197 18.6587 4.21969 19.1064 4.77197 19.1064L4.77197 17.1064ZM13.772 28.1064L13.772 29.1064L15.772 29.1064L15.772 28.1064L13.772 28.1064ZM5.35131 17.329C4.86646 17.0646 4.25903 17.2433 3.99457 17.7281C3.73012 18.213 3.90879 18.8204 4.39364 19.0849L5.35131 17.329ZM15.7721 8.20695L15.7721 7.20695L13.7721 7.20695L13.7721 8.20695L15.7721 8.20695ZM30.772 17.1064L4.87256 17.1064L4.87256 19.1064L30.772 19.1064L30.772 17.1064ZM4.87256 17.1064L4.77197 17.1064L4.77197 19.1064L4.87256 19.1064L4.87256 17.1064ZM15.772 28.1064C15.772 26.634 14.9767 25.2277 14.0004 24.0295C13.0042 22.8069 11.7003 21.6567 10.4337 20.6779C9.16112 19.6946 7.89353 18.8595 6.94694 18.2715C6.47271 17.9769 6.0768 17.7429 5.7982 17.5819C5.65886 17.5014 5.54872 17.439 5.47264 17.3964C5.4346 17.3751 5.40507 17.3587 5.38465 17.3474C5.37444 17.3417 5.36651 17.3374 5.36092 17.3343C5.35813 17.3328 5.35593 17.3316 5.35433 17.3307C5.35352 17.3303 5.35287 17.3299 5.35237 17.3296C5.35212 17.3295 5.35185 17.3293 5.35173 17.3293C5.3515 17.3292 5.35131 17.329 4.87248 18.207C4.39364 19.0849 4.39353 19.0848 4.39345 19.0848C4.39348 19.0848 4.39344 19.0847 4.39349 19.0848C4.39359 19.0848 4.39384 19.085 4.39423 19.0852C4.39503 19.0856 4.39641 19.0864 4.39838 19.0875C4.40232 19.0896 4.40858 19.0931 4.4171 19.0978C4.43414 19.1072 4.4602 19.1217 4.49466 19.141C4.5636 19.1796 4.66615 19.2377 4.79749 19.3136C5.06027 19.4654 5.43776 19.6885 5.8916 19.9704C6.80118 20.5354 8.00846 21.3314 9.21078 22.2605C10.419 23.1941 11.59 24.2375 12.4499 25.2929C13.3298 26.3727 13.772 27.3289 13.772 28.1064L15.772 28.1064ZM4.87256 18.1064C5.24719 19.0336 5.24746 19.0335 5.24777 19.0334C5.24792 19.0333 5.24827 19.0332 5.24857 19.0331C5.24919 19.0328 5.24995 19.0325 5.25086 19.0321C5.25269 19.0314 5.25511 19.0304 5.25813 19.0292C5.26416 19.0267 5.27254 19.0233 5.28321 19.0188C5.30455 19.01 5.33503 18.9973 5.37404 18.9808C5.45204 18.9477 5.56423 18.8993 5.70573 18.8361C5.98859 18.7098 6.3894 18.5239 6.86898 18.2825C7.82564 17.8009 9.10807 17.0922 10.3969 16.1875C11.6805 15.2863 13.0055 14.1664 14.0174 12.8529C15.0305 11.538 15.7721 9.97225 15.7721 8.20695L13.7721 8.20695C13.7721 9.3914 13.2762 10.538 12.4331 11.6323C11.5889 12.728 10.439 13.7143 9.24773 14.5506C8.06167 15.3832 6.86922 16.0433 5.96972 16.4961C5.52123 16.7218 5.14864 16.8945 4.89012 17.01C4.76094 17.0677 4.66044 17.111 4.59343 17.1394C4.55993 17.1536 4.53482 17.1641 4.5187 17.1707C4.51064 17.1741 4.50483 17.1765 4.50134 17.1779C4.49959 17.1786 4.49843 17.1791 4.49786 17.1793C4.49757 17.1794 4.49743 17.1795 4.49744 17.1795C4.49745 17.1795 4.49757 17.1794 4.49757 17.1794C4.49773 17.1794 4.49792 17.1793 4.87256 18.1064Z" fill="black"></path> </svg>